<?xml version="1.0" standalone="no"?>
<!DOCTYPE svg PUBLIC "-//W3C//DTD SVG 20010904//EN"
 "http://www.w3.org/TR/2001/REC-SVG-20010904/DTD/svg10.dtd">
<svg version="1.0" xmlns="http://www.w3.org/2000/svg"
 width="1024.000000pt" height="1024.000000pt" viewBox="0 0 1024.000000 1024.000000"
 preserveAspectRatio="xMidYMid meet">
<metadata>
Created by potrace 1.14, written by Peter Selinger 2001-2017
</metadata>
<g transform="translate(0.000000,1024.000000) scale(0.100000,-0.100000)"
fill="#000000" stroke="none">
<path d="M0 5120 l0 -5120 5120 0 5120 0 0 5120 0 5120 -5120 0 -5120 0 0
-5120z m9752 4453 c-42 -54 -430 -489 -661 -743 -637 -700 -1651 -1776 -2425
-2575 -431 -444 -2081 -2094 -2491 -2491 -983 -950 -1759 -1675 -2615 -2444
-168 -151 -388 -350 -490 -444 -102 -93 -203 -186 -224 -205 -21 -20 14 25 79
99 186 213 519 633 610 770 194 290 340 643 410 990 39 189 48 306 42 519 -8
288 -35 401 -164 675 -270 573 -387 1117 -370 1711 29 969 424 1857 1123 2524
569 543 1274 875 2079 977 174 23 632 26 800 6 450 -53 801 -154 1230 -355
275 -128 388 -156 673 -164 281 -8 483 19 763 102 247 73 521 199 724 333 177
117 686 523 865 690 36 34 67 61 68 62 2 0 -10 -17 -26 -37z m-1643 -3028
c145 -296 239 -600 293 -950 25 -168 35 -533 19 -712 -85 -920 -546 -1736
-1293 -2289 -421 -311 -882 -500 -1438 -587 -114 -18 -180 -21 -425 -22 -190
0 -323 5 -385 13 -276 39 -544 108 -774 198 -136 54 -476 220 -476 233 0 10
116 84 185 119 74 36 198 77 285 93 92 17 291 15 375 -4 39 -9 120 -27 180
-41 223 -52 311 -61 595 -61 205 0 291 4 380 18 866 135 1589 654 1970 1416
120 238 197 473 247 751 25 134 27 167 27 430 1 320 -7 394 -72 655 -36 145
-37 156 -37 325 1 148 4 187 23 255 37 137 99 270 169 364 l26 33 34 -58 c18
-33 60 -113 92 -179z m-780 -323 c237 -616 221 -1289 -47 -1888 -285 -636
-863 -1137 -1530 -1324 -428 -121 -864 -126 -1289 -15 -129 34 -339 107 -356
124 -13 13 79 72 145 93 83 25 137 23 274 -12 204 -51 316 -64 554 -64 365 0
636 60 945 208 465 224 808 564 1030 1021 79 161 119 270 160 431 48 193 59
292 59 539 0 251 -9 328 -65 555 -36 146 -35 218 5 307 27 58 67 113 78 107 4
-3 20 -39 37 -82z"/>
<path d="M4865 8253 c-692 -48 -1358 -367 -1875 -899 -438 -450 -707 -1005
-797 -1645 -27 -190 -24 -595 6 -789 68 -445 215 -832 459 -1202 78 -118 110
-149 202 -192 61 -29 72 -31 185 -31 114 0 123 2 185 31 36 18 81 45 100 62
l35 30 -60 67 c-174 195 -285 357 -389 566 -160 321 -240 637 -253 999 -32
896 433 1733 1210 2180 351 201 723 305 1137 317 410 12 779 -69 1140 -248
219 -109 375 -216 575 -394 l67 -60 30 35 c17 19 44 64 61 100 30 61 31 72 32
185 0 114 -2 123 -31 185 -17 36 -46 83 -65 105 -90 102 -506 334 -774 430
-372 134 -797 194 -1180 168z"/>
<path d="M4918 7529 c-766 -53 -1454 -511 -1802 -1199 -103 -202 -162 -379
-207 -615 -30 -155 -37 -492 -15 -663 62 -468 267 -903 585 -1236 83 -87 141
-116 231 -116 40 0 80 7 103 18 50 22 2848 2817 2873 2870 10 21 20 65 22 100
8 117 -36 184 -223 340 -428 358 -1000 541 -1567 501z"/>
</g>
</svg>
