<svg width="48" height="46" viewBox="0 0 48 46" fill="none" xmlns="http://www.w3.org/2000/svg">
<path d="M28.0751 5.37683C26.3799 2.4071 22.6261 1.38922 19.6908 3.10334C16.7554 4.81746 15.7501 8.61447 17.4453 11.5842L33.7604 40.1663C35.4555 43.136 39.2093 44.1539 42.1447 42.4398C45.08 40.7257 46.0854 36.9287 44.3902 33.9589L28.0751 5.37683Z" fill="url(#paint0_linear_3911_2648)"/>
<path d="M34.0488 15.9525C28.5523 13.0375 24.8749 17.0406 23.2677 19.4675C23.0109 19.8507 22.7737 20.2469 22.557 20.6546C22.4429 20.8623 22.3809 21.0074 22.3581 21.0568C22.3353 21.1063 22.3581 21.0568 22.3581 21.0733L20.2325 24.7862L11.4498 40.1686C10.6362 41.5941 9.29608 42.6343 7.72421 43.0604C6.15233 43.4864 4.4775 43.2635 3.06816 42.4406C1.65881 41.6176 0.630395 40.2621 0.20915 38.6723C-0.212095 37.0824 0.00833756 35.3884 0.821954 33.9629L16.0172 7.34292L17.1387 5.36447C17.6783 4.42192 18.4538 3.63978 19.3872 3.0968C20.3207 2.55382 21.3791 2.26917 22.4559 2.2715H22.6939C23.7719 2.27084 24.8311 2.55762 25.7646 3.10295C26.6981 3.64828 27.473 4.43288 28.0111 5.37766L34.0488 15.9525Z" fill="black"/>
<defs>
<linearGradient id="paint0_linear_3911_2648" x1="43.3458" y1="36.3214" x2="24.1053" y2="35.2031" gradientUnits="userSpaceOnUse">
<stop/>
<stop offset="1" stop-opacity="0"/>
</linearGradient>
</defs>
</svg>
